<?xml version="1.0" encoding="UTF-8"?>
<svg version="1.1" xmlns="http://www.w3.org/2000/svg" width="418" height="353">
<path d="M0 0 C0.66 0 1.32 0 2 0 C2.45101074 0.87229248 2.45101074 0.87229248 2.91113281 1.76220703 C8.37598308 12.31808371 13.87919979 22.84398396 19.625 33.25 C25.36354614 43.66246639 30.77440995 54.23498553 36.18588257 64.81951904 C40.66068209 73.56763484 45.17185327 82.28054307 49.9375 90.875 C55.7955916 101.4428641 61.26400247 112.20393109 66.75799561 122.96374512 C71.41559518 132.08083555 76.09853873 141.16959066 81.0625 150.125 C86.28293723 159.54472784 91.21448199 169.10386784 96.125 178.6875 C96.71580353 179.84032974 96.71580353 179.84032974 97.31854248 181.01644897 C98.85732426 184.01941961 100.39593798 187.02247625 101.9342041 190.02571106 C107.30203231 200.50005806 112.79408109 210.90515777 118.37109375 221.26953125 C119.62263202 223.5962276 120.87400078 225.92301389 122.125 228.25 C122.43957153 228.83493225 122.75414307 229.4198645 123.07824707 230.02252197 C128.96549705 240.978869 134.69664073 252.01242927 140.36962891 263.08105469 C140.99505891 264.30016011 141.62054643 265.51923602 142.24609375 266.73828125 C142.54807678 267.32785614 142.85005981 267.91743103 143.16119385 268.52487183 C144.82536249 271.76166273 146.52007428 274.9792357 148.25048828 278.18115234 C148.80688744 279.21226387 148.80688744 279.21226387 149.37452698 280.26420593 C150.09268602 281.59098449 150.81449656 282.91579471 151.54039001 284.23835754 C154 288.78056992 154 288.78056992 154 291 C142.78 291 131.56 291 120 291 C112.5126192 277.08477342 105.0508281 263.17090031 97.8125 249.125 C93.6811438 241.11000804 89.47938122 233.14604277 85.125 225.25 C79.88661101 215.74961599 74.91102241 206.12546602 69.96054077 196.47332764 C65.27156203 187.33626268 60.47153521 178.27681788 55.5078125 169.28515625 C51.03025915 161.13866431 46.77858401 152.88049394 42.53045654 144.61315918 C38.47553579 136.7266136 34.34862496 128.88911388 30.0625 121.125 C24.37031609 110.81195246 18.97336658 100.35403308 13.60571289 89.86962891 C12.95860112 88.60704252 12.3113865 87.34450884 11.6640625 86.08203125 C11.19881416 85.17312134 11.19881416 85.17312134 10.72416687 84.24584961 C8.26664559 79.46569407 5.68770343 74.76041917 3.04443359 70.08081055 C2 68 2 68 2 66 C1.34 66 0.68 66 0 66 C-0.16181763 66.53720673 -0.32363525 67.07441345 -0.49035645 67.62789917 C-2.38189289 73.62532964 -4.86063015 79.10286977 -7.71875 84.6953125 C-8.17314957 85.59713257 -8.62754913 86.49895264 -9.09571838 87.42810059 C-10.06116132 89.3429573 -11.0292431 91.25648554 -11.99978638 93.16876221 C-14.52131194 98.13754069 -17.02346194 103.11606366 -19.52734375 108.09375 C-20.01416122 109.06035553 -20.5009787 110.02696106 -21.00254822 111.02285767 C-24.43782539 117.85288472 -27.79991977 124.71052538 -31.0625 131.625 C-35.29334053 140.58610857 -39.70706147 149.4469907 -44.15966797 158.29980469 C-48.16491095 166.28169028 -52.06431276 174.30830233 -55.87109375 182.38671875 C-60.42395575 192.00981343 -65.23378086 201.46756172 -70 211 C-40.3 211 -10.6 211 20 211 C11.44770994 193.97461876 11.44770994 193.97461876 2.88671875 176.95361328 C1.81999546 174.82600528 0.7535686 172.69824862 -0.3125 170.5703125 C-0.87388672 169.457771 -1.43527344 168.34522949 -2.01367188 167.19897461 C-2.80547852 165.61572388 -2.80547852 165.61572388 -3.61328125 164.00048828 C-4.07516846 163.08115509 -4.53705566 162.1618219 -5.01293945 161.21463013 C-6 159 -6 159 -6 157 C4.89 157 15.78 157 27 157 C29.02125 160.898125 31.0425 164.79625 33.125 168.8125 C33.80892822 170.13145264 34.49285645 171.45040527 35.19750977 172.80932617 C38.32873776 178.84791141 41.45968959 184.88663928 44.58984375 190.92578125 C45.16573242 192.03663086 45.74162109 193.14748047 46.33496094 194.29199219 C47.48584597 196.51243912 48.63623735 198.733142 49.78613281 200.95410156 C52.45438387 206.10486803 55.12856614 211.25226994 57.82621765 216.38769531 C58.75305544 218.15222679 59.67817913 219.91765828 60.60327148 221.68310547 C61.76214867 223.89354753 62.92429066 226.1022818 64.09008789 228.30908203 C64.60434326 229.29118652 65.11859863 230.27329102 65.6484375 231.28515625 C66.10395996 232.15019775 66.55948242 233.01523926 67.02880859 233.90649414 C68 236 68 236 68 238 C7.28 238 -53.44 238 -116 238 C-112.62534216 227.87602647 -112.62534216 227.87602647 -110.26367188 223.20263672 C-109.73882202 222.1563913 -109.21397217 221.11014587 -108.67321777 220.03219604 C-108.11074341 218.92586823 -107.54826904 217.81954041 -106.96875 216.6796875 C-106.06444385 214.88119665 -105.16014007 213.0827046 -104.25595856 211.28415108 C-102.99280677 208.775293 -101.72413055 206.26924638 -100.45544434 203.76318359 C-97.66031059 198.23933937 -94.87677751 192.7096381 -92.09375 187.1796875 C-91.79014557 186.57698784 -91.48654114 185.97428818 -91.17373657 185.35332489 C-86.60704733 176.2829271 -82.16512204 167.15907116 -77.8104248 157.9850769 C-74.01722561 150.00101011 -70.08892184 142.09057778 -66.10842896 134.19854736 C-60.82619538 123.72133938 -55.57265181 113.23567182 -50.5625 102.625 C-45.30167673 91.48541548 -39.76169632 80.48885419 -34.23477173 69.47979736 C-29.06039795 59.16923985 -23.95332236 48.83664611 -19.02416992 38.40600586 C-12.90154052 25.49777192 -6.42275286 12.76073842 0 0 Z " fill="#FFFFFF" transform="translate(120,59)"/>
<path d="M0 0 C10.89 0 21.78 0 33 0 C40.48738017 13.91522542 47.94919695 27.82908769 55.1875 41.875 C59.29747676 49.84882319 63.47773255 57.77114318 67.8125 65.625 C73.28169658 75.53844103 78.45243349 85.59504796 83.61193848 95.67163086 C88.43348978 105.08308647 93.35600361 114.42045113 98.47265625 123.67578125 C102.79906063 131.54090225 106.90398139 139.51344184 111 147.5 C115.60400557 156.47656032 120.25370888 165.41439479 125.125 174.25 C129.44145879 182.08534354 133.65519983 189.97066605 137.7880249 197.9041748 C138.42548526 199.12732538 139.06434424 200.34974815 139.70465088 201.57141113 C140.5938223 203.26933992 141.47674612 204.97053605 142.359375 206.671875 C142.86952148 207.6525293 143.37966797 208.63318359 143.90527344 209.64355469 C145 212 145 212 145 214 C171.07 214 197.14 214 224 214 C218.7715625 203.790625 218.7715625 203.790625 213.4375 193.375 C199.44124949 165.99971753 199.44124949 165.99971753 193.02639771 153.2300415 C192.38525215 151.95457087 191.74274054 150.67978598 191.09884644 149.40570068 C190.2194406 147.66441315 189.3458643 145.92018505 188.47265625 144.17578125 C187.99062744 143.21583252 187.50859863 142.25588379 187.01196289 141.2668457 C186 139 186 139 186 137 C196.56 137 207.12 137 218 137 C222.51757812 145.65869141 227.03515625 154.31738281 231.55273438 162.97607422 C232.29233398 164.39364014 232.29233398 164.39364014 233.046875 165.83984375 C269 234.75000001 269 234.75000001 270.50048828 237.62597656 C271.49881616 239.53941125 272.49718844 241.45282277 273.49560547 243.36621094 C276.02155651 248.20713636 278.54669444 253.04848291 281.0703125 257.890625 C281.82973145 259.34722534 281.82973145 259.34722534 282.60449219 260.83325195 C283.60819906 262.75863506 284.61146338 264.68424894 285.61425781 266.61010742 C288.04975232 271.28271758 290.49886423 275.94727009 292.9765625 280.59765625 C293.44433105 281.47776367 293.91209961 282.35787109 294.39404297 283.26464844 C295.27753979 284.92474437 296.16442011 286.58304543 297.05517578 288.23925781 C300 293.77772224 300 293.77772224 300 296 C288.78 296 277.56 296 266 296 C262.75541623 289.57981179 259.51464448 283.1579757 256.28320312 276.73120117 C255.18349153 274.54683587 254.0816253 272.36355389 252.97753906 270.18139648 C251.38815573 267.03914269 249.80663915 263.89303559 248.2265625 260.74609375 C247.73378815 259.7760289 247.24101379 258.80596405 246.73330688 257.8065033 C246.27298065 256.88607742 245.81265442 255.96565155 245.33837891 255.01733398 C244.9342276 254.21569321 244.53007629 253.41405243 244.11367798 252.58811951 C242.78545834 249.50141829 241.92315668 246.23104837 241 243 C214.93 243 188.86 243 162 243 C170.65848798 259.73974343 179.31243173 276.47048196 188.13647461 293.12182617 C189 295 189 295 189 297 C178.44 297 167.88 297 157 297 C150.71099016 285.55854837 144.49137622 274.09991979 138.5 262.5 C134.44753587 254.65452094 130.32102792 246.86057067 126.0625 239.125 C120.9530148 229.84118737 116.06657232 220.45211714 111.21337891 211.03222656 C107.07797098 203.02578509 102.81440689 195.10087076 98.46875 187.20703125 C94.7095264 180.35666888 91.08603795 173.44239934 87.5 166.5 C83.42607314 158.61338072 79.27828982 150.77768255 75 143 C70.1457943 134.17533581 65.47770065 125.26443237 60.85546875 116.31640625 C57.32267761 109.49533696 53.70224126 102.73045971 50 96 C45.1457943 87.17533581 40.47770065 78.26443237 35.85546875 69.31640625 C31.85573404 61.59376812 27.7244345 53.95248701 23.53271484 46.33276367 C19.07395632 38.19961693 14.78919787 29.98012518 10.5390625 21.73632812 C7.48951868 15.82783697 4.35881402 9.98086121 1.09716797 4.1862793 C0 2 0 2 0 0 Z " fill="#FFFFFF" transform="translate(116,4)"/>
</svg>
